<?xml version="1.0" encoding="UTF-8" standalone="no"?>
<svg
   xmlns:dc="http://purl.org/dc/elements/1.1/"
   xmlns:cc="http://creativecommons.org/ns#"
   xmlns:rdf="http://www.w3.org/1999/02/22-rdf-syntax-ns#"
   xmlns:svg="http://www.w3.org/2000/svg"
   xmlns="http://www.w3.org/2000/svg"
   version="1.1"
   id="svg2"
   viewBox="0 0 32 32"
   height="32"
   width="32">
  <defs
     id="defs4" />
  <metadata
     id="metadata7">
    <rdf:RDF>
      <cc:Work
         rdf:about="">
        <dc:format>image/svg+xml</dc:format>
        <dc:type
           rdf:resource="http://purl.org/dc/dcmitype/StillImage" />
        <dc:title></dc:title>
      </cc:Work>
    </rdf:RDF>
  </metadata>
  <g
     transform="translate(-291.42856,-618.21934)"
     id="layer1">
    <g
       id="text4142"
       style="font-style:normal;font-weight:normal;font-size:32px;line-height:125%;font-family:sans-serif;letter-spacing:0px;word-spacing:0px;fill:#0275d8;fill-opacity:1;stroke:none;stroke-width:1px;stroke-linecap:butt;stroke-linejoin:miter;stroke-opacity:1">
      <path
         id="path4166"
         style="font-style:normal;font-variant:normal;font-weight:normal;font-stretch:normal;font-family:FontAwesome;-inkscape-font-specification:FontAwesome;fill:#0275d8;fill-opacity:1;stroke:none;stroke-opacity:1"
         d="m 314.2857,636.50503 5.44643,0 q -0.0893,0.10714 -0.17857,0.19643 -0.0893,0.0714 -0.16072,0.125 l -0.0536,0.0714 -11.125,10.71428 q -0.32143,0.32143 -0.78571,0.32143 -0.46429,0 -0.78572,-0.32143 l -11.14285,-10.75 q -0.0893,-0.0357 -0.375,-0.35714 l 6.58928,0 q 0.39286,0 0.69643,-0.23214 0.32143,-0.25 0.41072,-0.625 l 1.25,-5.01786 3.39285,11.91072 q 0.10715,0.35714 0.41072,0.58928 0.30357,0.23214 0.69643,0.23214 0.375,0 0.67857,-0.23214 0.30357,-0.23214 0.41071,-0.58928 l 2.60714,-8.66072 1,2 q 0.32143,0.625 1.01786,0.625 z m 9.14286,-7.64286 q 0,2.58929 -1.83929,5.35715 l -6.58928,0 -1.98215,-3.94643 q -0.14285,-0.30357 -0.46428,-0.48214 -0.30357,-0.17858 -0.64286,-0.14286 -0.80357,0.0893 -1,0.82143 l -2.30357,7.67857 -3.5,-12.25 q -0.10714,-0.35714 -0.42857,-0.58929 -0.30357,-0.23214 -0.69643,-0.23214 -0.39286,0 -0.69643,0.25 -0.30357,0.23214 -0.39286,0.60714 l -2.07142,8.28572 -7.55358,0 q -1.83928,-2.76786 -1.83928,-5.35715 0,-3.92857 2.26786,-6.14285 2.26785,-2.21429 6.26785,-2.21429 1.10715,0 2.25,0.39286 1.16072,0.375 2.14286,1.03571 1,0.64286 1.71429,1.21429 0.71428,0.57143 1.35714,1.21428 0.64286,-0.64285 1.35714,-1.21428 0.71429,-0.57143 1.69643,-1.21429 1,-0.66071 2.14286,-1.03571 1.16071,-0.39286 2.26785,-0.39286 4,0 6.26786,2.21429 2.26786,2.21428 2.26786,6.14285 z" />
    </g>
  </g>
</svg>
